<?xml version="1.0" encoding="utf-8"?>
<!-- Generator: Adobe Illustrator 19.2.0, SVG Export Plug-In . SVG Version: 6.00 Build 0)  -->
<svg version="1.1" id="Layer_1" xmlns="http://www.w3.org/2000/svg" xmlns:xlink="http://www.w3.org/1999/xlink" x="0px" y="0px"
	 viewBox="0 0 175.3 175.9" style="enable-background:new 0 0 175.3 175.9;" xml:space="preserve">
<style type="text/css">
	.st0{fill:#939598;}
</style>
<g id="Plat9r.tif">
	<g>
		<path class="st0" d="M12.1,175.9c0.3-3.6,0.2-7.1,0.3-10.7c0.1-5.5,0.6-11,2.1-16.3c1.4-5.2,4.6-8.8,8.9-11.5
			c5.1-3.2,10.8-4.8,16.3-6.9c6.3-2.4,12.5-5.2,18.6-8c1.7-0.8,3.1-1.9,4.3-3.4c1.3-1.6,2.8-3.2,4.6-4c1.7-0.8,1.7-2.4,1.8-3.9
			c0.1-2.1,0-4.3,0.1-6.4c0-0.6-0.3-1.1-0.5-1.6c-1.7-3.4-3-6.9-3.6-10.7c-0.1-0.6-0.2-1-1-0.8c-0.9,0.2-1.5-0.5-2.1-1.3
			c-1.4-2.2-2.1-4.8-2.6-7.3c-0.3-1.5-0.8-3-1.5-4.4c-1-2.2-1.1-4.6-0.9-6.9c0.1-1.4,0.8-2.4,2.1-2.6c1-0.1,0.9-0.6,0.7-1.4
			c-0.9-3-1.4-6.2-1.9-9.3c-0.6-4.6-0.1-9,1.1-13.4c2.7-9.6,9.1-15.3,17.2-19c2.8-1.3,5.8-2.2,9-2c6.3,0.6,12.6,1.3,18.4,4.3
			c6,3.1,9.8,8.5,12.4,14.9c2.2,5.4,2.9,11,2.5,16.8c-0.2,2.7-0.6,5.3-1.3,7.9c-0.2,0.7-0.3,1.1,0.7,0.9c1.4-0.2,2.9,1.7,2.3,3.2
			c-1.9,4.9-1.9,10.4-3.8,15.3c-0.4,1-0.8,2-1.4,2.9c-0.5,0.9-1.2,1.6-2.3,0.8c-0.6-0.4-0.7,0-0.8,0.5c-0.7,4.2-2.1,8.1-3.7,12
			c-1.1,2.7-0.9,5.6-0.4,8.4c0.1,0.5,0.3,0.8,0.7,0.9c2.3,1.2,3.8,3.2,5.3,5.2c1.1,1.5,2.4,2.6,4,3.2c9.4,3.5,18.5,7.9,27.7,11.9
			c1.8,0.8,3.5,1.7,5.3,2.3c4.8,1.7,7.6,5.7,9.5,10.5c1.7,4.4,2.8,9,3,13.9c0.2,5.2-0.3,10.3-0.1,15.5
			C112.8,175.9,62.4,175.9,12.1,175.9z"/>
	</g>
</g>
</svg>
