<?xml version="1.0" encoding="utf-8"?>
<!-- Generator: Adobe Illustrator 19.2.0, SVG Export Plug-In . SVG Version: 6.00 Build 0)  -->
<svg version="1.1" id="Layer_1" xmlns="http://www.w3.org/2000/svg" xmlns:xlink="http://www.w3.org/1999/xlink" x="0px" y="0px"
	 viewBox="0 0 439.7 439.7" style="enable-background:new 0 0 439.7 439.7;" xml:space="preserve">
<style type="text/css">
	.st0{fill:#FFFFFF;}
</style>
<g>
	<path class="st0" d="M319.9,0.1c-25.7,0-51.3,0-77,0c-2.2,0-2.9,0.5-2.9,2.8c0.2,4.8-0.1,9.7,0.1,14.5c0.1,2.3-0.8,2.9-2.9,2.8
		c-5-0.1-10,0-15-0.1c-1.6,0-2.3,0.5-2.2,2.2c0.1,0.6,0,1.2,0,1.7c0,41,0,82,0,123c0,2.3-0.6,3.3-3.1,3.2c-4.9-0.2-9.8,0-14.7-0.1
		c-1.8,0-2.3,0.6-2.3,2.3c0.1,5,0,10,0.1,15c0,2-0.6,2.8-2.7,2.7c-8.1-0.1-16.2,0-24.2-0.1c-2.3,0-3.2,0.5-3.1,3
		c0.2,4.8,0,9.7,0.1,14.5c0.1,2-0.6,2.6-2.6,2.6c-8.2-0.1-16.5,0-24.7-0.1c-2.3,0-2.8,0.7-2.8,2.9c0.1,4.9,0,9.8,0.1,14.7
		c0,1.8-0.6,2.5-2.5,2.5c-4.7-0.1-9.5,0-14.2,0c-3.3,0-3.3,0-3.3,3.2c0,4.8-0.1,9.7,0,14.5c0,1.8-0.7,2.3-2.4,2.3
		c-11.9,0-23.8,0-35.7,0c-1.7,0-2.4-0.6-2.4-2.3c0.1-4.8,0-9.7,0-14.5c0-3.2,0-3.2-3.3-3.2c-4.7,0-9.5-0.1-14.2,0
		c-1.9,0-2.5-0.6-2.5-2.5c0.1-5,0-10,0.1-15c0-1.9-0.5-2.7-2.5-2.6c-4.4,0.1-8.8,0-13.2,0c-4.3,0-4.3,0-4.3-4.1
		c0-11.1-0.1-22.2,0-33.2c0-2.1-0.6-2.7-2.7-2.7c-4.8,0.1-9.7,0.1-14.5,0c-1.8,0-2.5,0.5-2.5,2.4c0,38.2,0.1,76.5,0,114.7
		c0,2.1,0.7,2.5,2.6,2.5c5-0.1,10,0,15-0.1c1.9,0,2.5,0.7,2.4,2.5c-0.1,5,0.1,10-0.1,15c0,1.9,0.5,2.6,2.5,2.6
		c4.9-0.1,9.8,0.1,14.7-0.1c2.3-0.1,2.9,0.8,2.8,2.9c-0.1,4.9,0,9.8-0.1,14.7c0,1.9,0.6,2.5,2.4,2.4c4.8-0.1,9.7,0.1,14.5-0.1
		c2.3-0.1,3.2,0.6,3.2,3.1c-0.2,4.8,0,9.7-0.1,14.5c-0.1,2,0.7,2.6,2.6,2.5c5-0.1,10,0,15-0.1c1.8,0,2.5,0.6,2.5,2.4
		c-0.1,4.8,0.1,9.7-0.1,14.5c-0.1,2.6,0.8,3.3,3.3,3.1c4.1-0.2,8.2-0.1,12.2,0c5,0,4.5-0.6,4.5,4.6c0,24.2,0,48.5,0,72.7
		c0,2,0.6,2.7,2.7,2.7c11.5-0.1,23-0.1,34.5,0c1.8,0,2.6-0.4,2.5-2.4c-0.1-5-0.1-10,0-15c0-1.8-0.6-2.3-2.3-2.3
		c-5.1,0.1-10.2,0-15.2,0.1c-1.8,0-2.5-0.6-2.5-2.4c0.1-5.2,0.1-10.5,0-15.7c0-1.8,0.7-2.3,2.4-2.3c5.1,0.1,10.2,0,15.2,0.1
		c1.8,0,2.5-0.6,2.4-2.4c-0.1-4.8,0.1-9.7-0.1-14.5c-0.1-2.3,0.6-3.3,3.1-3.2c4.7,0.2,9.5-0.1,14.2,0.1c2.3,0.1,2.8-0.7,2.8-2.9
		c-0.1-4.9,0-9.8-0.1-14.7c0-1.8,0.6-2.5,2.5-2.5c5.2,0.1,10.3,0.1,15.5,0c2.1,0,2.5,0.8,2.5,2.7c-0.1,5,0,10-0.1,15
		c0,1.9,0.6,2.4,2.5,2.4c4.7-0.1,9.5,0,14.2,0c3.3,0,3.3,0,3.3,3.3c0,18,0,36,0,54c0,1.7,0.1,2.8,2.3,2.8c11.7-0.1,23.3-0.1,35,0
		c1.8,0,2.3-0.6,2.3-2.3c-0.1-5-0.1-10,0-15c0-1.7-0.5-2.3-2.3-2.3c-5,0.1-10,0-15,0.1c-2,0-2.8-0.5-2.8-2.7
		c0.1-25.1,0.1-50.2,0-75.2c0-2,0.6-2.6,2.6-2.6c4.9,0.1,9.8,0,14.7,0.1c2,0.1,2.8-0.5,2.7-2.6c-0.1-4.9,0-9.8-0.1-14.7
		c-0.1-2.1,0.7-2.7,2.8-2.7c4.9,0.1,9.8,0,14.7,0.1c2,0,2.6-0.6,2.6-2.6c-0.1-8.2,0-16.5-0.1-24.7c0-2,0.5-2.8,2.7-2.8
		c4.7,0.1,9.5-0.1,14.2,0.1c2.6,0.1,3.2-0.8,3.2-3.2c-0.1-21.2,0-42.5-0.1-63.7c0-2.4,0.7-3.2,3.1-3.1c4.7,0.2,9.5,0.2,14.2,0
		c2.3-0.1,3.3,0.6,3.2,3c-0.2,4.8,0,9.7-0.1,14.5c-0.1,2,0.7,2.6,2.6,2.5c4.7-0.1,9.5-0.1,14.2,0c2.2,0.1,2.9-0.6,2.8-2.8
		c-0.1-11.2-0.1-22.5,0-33.7c0-2.4-0.6-3.1-3-3.1c-11.3,0.1-22.7,0-34,0.1c-2.5,0-3.1-0.8-3.1-3.2c0.1-11.2,0-22.5,0-33.7
		c0-3.6,0-3.6,3.5-3.6c24.3,0,48.7,0,73,0c3.5,0,3.5,0,3.5-3.3c0-4.4-0.1-8.8,0.1-13.2c0.1-2.5-0.7-3.1-3.1-3c-18,0.1-36,0-54,0.1
		c-2.3,0-3.1-0.6-3-3c0.2-4.4,0-8.8,0-13.2c0-4.8-0.3-4.3,4.4-4.3c30.9,0,61.8,0,92.7,0c1.7,0,3,0,2.9-2.4
		c-0.1-28.2-0.1-56.5,0-84.7c0-2.1-0.8-2.5-2.6-2.5c-4.8,0.1-9.7-0.1-14.5,0.1c-2.4,0.1-3-0.8-2.9-3c0.1-4.7-0.1-9.3,0.1-14
		c0.1-2.4-0.7-3.1-3.1-3.1C371,0.1,345.5,0.1,319.9,0.1z M359.9,360.1c-24.5,0-49,0-73.5,0c-6.3,0-6.3,0-6.3,6.2
		c0,3.3,0,3.3,3.4,3.3c49.8,0,99.6,0,149.5,0c6.7,0,6.6,0,6.7-6.6c0.1-2.5-0.8-3-3.1-3C411,360.1,385.4,360.1,359.9,360.1z
		 M40.1,360.1c-11.2,0-22.3,0-33.5,0c-6.6,0-6.4,0-6.6,6.5c-0.1,2.6,0.8,3.2,3.2,3.2c23.2-0.1,46.5-0.1,69.7-0.1
		c6.7,0,6.6,0,6.7-6.8c0-2.3-0.7-2.8-2.9-2.8C64.6,360.1,52.4,360.1,40.1,360.1z M79.9,409.6c5.8,0,11.7,0,17.5,0
		c1.7,0,2.5-0.5,2.3-2.3c-0.1-1.6-0.1-3.2,0-4.7c0.2-2.1-0.7-2.7-2.7-2.6c-9.9,0.1-19.8,0-29.7,0c-7.4,0-7.3,0-7.2,7.3
		c0,1.8,0.7,2.3,2.4,2.3C68.2,409.6,74,409.6,79.9,409.6z M19.9,439.6c5.8,0,11.7,0,17.5,0c1.7,0,2.5-0.5,2.3-2.3
		c-0.1-1.6-0.2-3.2,0-4.7c0.2-2.2-0.7-2.6-2.7-2.6c-9.9,0.1-19.8,0-29.7,0c-7.4,0-7.3,0-7.2,7.3c0,1.8,0.7,2.3,2.4,2.3
		C8.2,439.6,14,439.6,19.9,439.6z M414.8,420.1c-5.4,0.1-4.7-0.7-4.7,4.5c0,5,0,5.1,5,5c5.3,0,4.5,0.7,4.6-4.7
		C419.7,420.1,419.6,420.1,414.8,420.1z"/>
	<path d="M319.9,0.1c25.6,0,51.2,0,76.7-0.1c2.4,0,3.2,0.7,3.1,3.1c-0.2,4.7,0,9.3-0.1,14c-0.1,2.2,0.6,3.1,2.9,3
		c4.8-0.2,9.7,0,14.5-0.1c1.8,0,2.7,0.4,2.6,2.5c-0.1,28.2-0.1,56.5,0,84.7c0,2.4-1.2,2.4-2.9,2.4c-30.9,0-61.8,0-92.7,0
		c-4.7,0-4.3-0.5-4.4,4.3c0,4.4,0.1,8.8,0,13.2c-0.1,2.3,0.7,3,3,3c18-0.1,36,0,54-0.1c2.4,0,3.2,0.6,3.1,3
		c-0.2,4.4-0.1,8.8-0.1,13.2c0,3.3,0,3.3-3.5,3.3c-24.3,0-48.7,0-73,0c-3.5,0-3.5,0-3.5,3.6c0,11.2,0.1,22.5,0,33.7
		c0,2.4,0.6,3.2,3.1,3.2c11.3-0.1,22.7,0,34-0.1c2.5,0,3.1,0.8,3,3.1c-0.1,11.2-0.1,22.5,0,33.7c0,2.2-0.6,2.9-2.8,2.8
		c-4.7-0.2-9.5-0.1-14.2,0c-1.9,0-2.7-0.5-2.6-2.5c0.1-4.8-0.1-9.7,0.1-14.5c0.1-2.5-0.8-3.1-3.2-3c-4.7,0.2-9.5,0.2-14.2,0
		c-2.4-0.1-3.1,0.7-3.1,3.1c0.1,21.2,0,42.5,0.1,63.7c0,2.5-0.6,3.4-3.2,3.2c-4.7-0.2-9.5,0-14.2-0.1c-2.1-0.1-2.7,0.8-2.7,2.8
		c0.1,8.2,0,16.5,0.1,24.7c0,2-0.6,2.6-2.6,2.6c-4.9-0.1-9.8,0-14.7-0.1c-2,0-2.8,0.6-2.8,2.7c0.1,4.9-0.1,9.8,0.1,14.7
		c0.1,2.1-0.7,2.7-2.7,2.6c-4.9-0.1-9.8,0-14.7-0.1c-2,0-2.6,0.6-2.6,2.6c0,25.1,0.1,50.2,0,75.2c0,2.1,0.8,2.7,2.8,2.7
		c5-0.1,10,0,15-0.1c1.8,0,2.3,0.6,2.3,2.3c-0.1,5-0.1,10,0,15c0,1.7-0.5,2.3-2.3,2.3c-11.7-0.1-23.3-0.1-35,0
		c-2.3,0-2.3-1.1-2.3-2.8c0-18,0-36,0-54c0-3.3,0-3.3-3.3-3.3c-4.7,0-9.5-0.1-14.2,0c-1.8,0-2.5-0.5-2.5-2.4c0.1-5,0-10,0.1-15
		c0-1.9-0.4-2.7-2.5-2.7c-5.2,0.1-10.3,0.1-15.5,0c-1.8,0-2.5,0.6-2.5,2.5c0.1,4.9-0.1,9.8,0.1,14.7c0.1,2.1-0.5,3-2.8,2.9
		c-4.7-0.2-9.5,0.1-14.2-0.1c-2.5-0.1-3.1,0.8-3.1,3.2c0.1,4.8,0,9.7,0.1,14.5c0,1.9-0.6,2.5-2.4,2.4c-5.1-0.1-10.2,0-15.2-0.1
		c-1.7,0-2.4,0.5-2.4,2.3c0.1,5.2,0.1,10.5,0,15.7c0,1.9,0.7,2.5,2.5,2.4c5.1-0.1,10.2,0,15.2-0.1c1.7,0,2.4,0.5,2.3,2.3
		c-0.1,5-0.1,10,0,15c0,2-0.8,2.4-2.5,2.4c-11.5-0.1-23-0.1-34.5,0c-2.1,0-2.7-0.7-2.7-2.7c0.1-24.2,0.1-48.5,0-72.7
		c0-5.2,0.4-4.5-4.5-4.6c-4.1,0-8.2-0.1-12.2,0c-2.5,0.1-3.4-0.5-3.3-3.1c0.2-4.8,0-9.7,0.1-14.5c0-1.9-0.7-2.5-2.5-2.4
		c-5,0.1-10,0-15,0.1c-1.9,0-2.6-0.5-2.6-2.5c0.1-4.8-0.1-9.7,0.1-14.5c0.1-2.5-0.8-3.1-3.2-3.1c-4.8,0.2-9.7,0-14.5,0.1
		c-1.9,0-2.5-0.6-2.4-2.4c0.1-4.9-0.1-9.8,0.1-14.7c0.1-2.1-0.6-3-2.8-2.9c-4.9,0.1-9.8,0-14.7,0.1c-2,0.1-2.6-0.7-2.5-2.6
		c0.1-5,0-10,0.1-15c0-1.8-0.6-2.5-2.4-2.5c-5,0.1-10,0-15,0.1c-1.9,0-2.6-0.4-2.6-2.5c0.1-38.2,0.1-76.5,0-114.7
		c0-1.9,0.6-2.4,2.5-2.4c4.8,0.1,9.7,0.1,14.5,0c2.1-0.1,2.7,0.6,2.7,2.7c-0.1,11.1,0,22.2,0,33.2c0,4.1,0,4.1,4.3,4.1
		c4.4,0,8.8,0.1,13.2,0c2-0.1,2.6,0.7,2.5,2.6c-0.1,5,0,10-0.1,15c0,1.8,0.6,2.5,2.5,2.5c4.7-0.1,9.5,0,14.2,0c3.3,0,3.3,0,3.3,3.2
		c0,4.8,0.1,9.7,0,14.5c0,1.8,0.6,2.3,2.4,2.3c11.9,0,23.8,0,35.7,0c1.7,0,2.4-0.6,2.4-2.3c-0.1-4.8,0-9.7,0-14.5
		c0-3.2,0-3.2,3.3-3.2c4.7,0,9.5-0.1,14.2,0c1.9,0,2.5-0.6,2.5-2.5c-0.1-4.9,0.1-9.8-0.1-14.7c-0.1-2.2,0.5-2.9,2.8-2.9
		c8.2,0.1,16.5,0,24.7,0.1c1.9,0,2.6-0.5,2.6-2.6c-0.1-4.8,0.1-9.7-0.1-14.5c-0.1-2.5,0.8-3.1,3.1-3c8.1,0.1,16.2,0,24.2,0.1
		c2.1,0,2.7-0.7,2.7-2.7c-0.1-5,0-10-0.1-15c0-1.7,0.5-2.4,2.3-2.3c4.9,0.1,9.8-0.1,14.7,0.1c2.5,0.1,3.1-0.8,3.1-3.2
		c-0.1-41,0-82,0-123c0-0.6,0.1-1.2,0-1.7c-0.2-1.6,0.5-2.2,2.2-2.2c5,0.1,10-0.1,15,0.1c2.1,0.1,3-0.6,2.9-2.8
		c-0.1-4.8,0.1-9.7-0.1-14.5c-0.1-2.3,0.7-2.8,2.9-2.8C268.5,0.1,294.2,0.1,319.9,0.1z M280.1,39.9c0-2.7,0-5.5,0-8.2
		c0-1.4-0.4-2.1-2-2.1c-5.4,0.1-10.8,0.1-16.2,0c-1.6,0-2.3,0.5-2.2,2.2c0.1,5.4,0,10.8,0,16.2c0,1.5,0.6,2.1,2.1,2.1
		c5.5,0,11,0,16.5,0c1.4,0,1.9-0.5,1.9-1.9C280,45.4,280.1,42.7,280.1,39.9z"/>
	<path d="M359.9,360.1c25.6,0,51.2,0,76.7-0.1c2.4,0,3.2,0.6,3.1,3c-0.2,6.6,0,6.6-6.7,6.6c-49.8,0-99.6,0-149.5,0
		c-3.4,0-3.4,0-3.4-3.3c0-6.2,0-6.2,6.3-6.2C310.9,360.1,335.4,360.1,359.9,360.1z"/>
	<path d="M40.1,360.1c12.2,0,24.5,0,36.7,0c2.2,0,2.9,0.5,2.9,2.8c-0.1,6.8,0,6.8-6.7,6.8c-23.2,0-46.5,0-69.7,0.1
		c-2.5,0-3.3-0.5-3.2-3.2c0.2-6.5,0.1-6.5,6.6-6.5C17.8,360.1,29,360.1,40.1,360.1z"/>
	<path d="M79.9,409.6c-5.8,0-11.7,0-17.5,0c-1.7,0-2.3-0.5-2.4-2.3c-0.1-7.3-0.2-7.3,7.2-7.3c9.9,0,19.8,0,29.7,0
		c2,0,2.9,0.5,2.7,2.6c-0.2,1.6-0.1,3.2,0,4.7c0.1,1.8-0.6,2.3-2.3,2.3C91.5,409.6,85.7,409.6,79.9,409.6z"/>
	<path d="M19.9,439.6c-5.8,0-11.7,0-17.5,0c-1.7,0-2.3-0.5-2.4-2.3c-0.1-7.3-0.2-7.3,7.2-7.3c9.9,0,19.8,0,29.7,0
		c2,0,2.9,0.5,2.7,2.6c-0.2,1.6-0.1,3.2,0,4.7c0.1,1.8-0.6,2.3-2.3,2.3C31.5,439.6,25.7,439.6,19.9,439.6z"/>
	<path d="M414.8,420.1c4.8,0,4.9,0,4.8,4.9c0,5.3,0.7,4.6-4.6,4.7c-5,0-5,0-5-5C410.1,419.3,409.4,420.1,414.8,420.1z"/>
</g>
</svg>
