<svg xmlns="http://www.w3.org/2000/svg" viewBox="0 0 328.7 436"><style type="text/css">  
	.st0{fill:#120101;}
	.st1{fill:#1E0101;}
	.st2{fill:#230202;}
	.st3{fill:#340404;}
	.st4{fill:#370303;}
	.st5{fill:#4D0808;}
	.st6{fill:#800C0C;}
	.st7{fill:#951E1E;}
	.st8{fill:#4D0F0F;}
	.st9{fill:#FDC5C5;}
	.st10{fill:#460606;}
	.st11{fill:#FEFCFC;}
	.st12{fill:#711818;}
	.st13{fill:#D72D2D;}
	.st14{fill:#D82E2E;}
	.st15{fill:#D22727;}
	.st16{fill:#D12727;}
	.st17{fill:#D62C2C;}
	.st18{fill:#EA4040;}
	.st19{fill:#D62B2B;}
	.st20{fill:#F34949;}
	.st21{fill:#B10A0A;}
	.st22{fill:#F14747;}
	.st23{fill:#C71D1D;}
	.st24{fill:#D42A2A;}
	.st25{fill:#A00202;}
	.st26{fill:#B61010;}
	.st27{fill:#C31919;}
	.st28{fill:#D32A2A;}
	.st29{fill:#FDBFBF;}
	.st30{fill:#FDC3C3;}
	.st31{fill:#9E0404;}
	.st32{fill:#A60404;}
	.st33{fill:#FDBBBB;}
	.st34{fill:#FDDADA;}
	.st35{fill:#BC1414;}
	.st36{fill:#A70505;}
	.st37{fill:#FEDDDD;}
	.st38{fill:#EC4242;}
	.st39{fill:#A30404;}
	.st40{fill:#370101;}
	.st41{fill:#ED4848;}
	.st42{fill:#BA1212;}
	.st43{fill:#FEEAEA;}
	.st44{fill:#410101;}
	.st45{fill:#960303;}
	.st46{fill:#350101;}
	.st47{fill:#F65D5D;}
	.st48{fill:#4F0101;}
	.st49{fill:#690101;}
	.st50{fill:#680101;}
	.st51{fill:#EA6464;}
	.st52{fill:#940202;}
	.st53{fill:#A00404;}
	.st54{fill:#EF4545;}
	.st55{fill:#4E0101;}
	.st56{fill:#EE4646;}
	.st57{fill:#E94040;}
	.st58{fill:#CE2727;}
	.st59{fill:#A70303;}
	.st60{fill:#9E0505;}
	.st61{fill:#A10404;}
	.st62{fill:#FEF5F5;}
	.st63{fill:#FEC8C8;}
	.st64{fill:#F7BBBB;}
	.st65{fill:#9F0505;}
	.st66{fill:#C22020;}
	.st67{fill:#620101;}
	.st68{fill:#D52D2D;}
	.st69{fill:#F04848;}
	.st70{fill:#F6A3A3;}
	.st71{fill:#F25D5D;}
	.st72{fill:#FE7777;}
	.st73{fill:#FECFCF;}
	.st74{fill:#350505;}
	.st75{fill:#2C0101;}
	.st76{fill:#340101;}
	.st77{fill:#3D0101;}
	.st78{fill:#8F0505;}
	.st79{fill:#FEB6B6;}
	.st80{fill:#FC9A9A;}
</style><path class="st0" d="M309.6 221.5c9.1 7.4 16 16.1 18.4 28.1 1.5 7.4 0.6 14.2-2.7 20.9 -5.9 12-13.9 22.7-21.4 33.6 -11.3 16.5-19 34.5-23.2 54.1 -0.2 1.1-0.7 2.2-1.4 4.1 -8.6-14.1-8.9-29.6-11.2-44.3 -2.4-15.3-1.5-30.6 5.3-45.5 -9.6 0.5-17.3 4.5-24.7 9.1 -12.8 8-23.8 17.9-33.1 29.8 -7.6 9.7-16.1 19-26.5 25.6 -7.9 5.1-11.4 12.1-13.9 20.1 -2.7 8.7-4.7 17.7-7.1 26.5 -0.9 3.4-0.4 6.4 1.8 9.3 3.2 4.2 5.6 9 9.3 12.9 4.1 4.4 3.8 9.7-0.2 13.9 -1.4 1.5-1.8 2.9-1.7 4.9 0.1 3.5-0.1 7-1.8 10.3 -3.5-1.4-4.3-4.9-5.9-7.7 -3.7-6.3-7.3-7-13.1-2 -0.5 0.4-1 0.7-1.6 1 -1.2-0.8-1.3-2.1-1.4-3.3 -0.1-1.9 0.3-3.9-0.4-5.8 -0.7-2-2-3.4-4.4-2.7 -0.9 0.2-1.6 1-2.5 0.9 -1-0.5-1.2-1.4-1.1-2.4 4.3-5.4 9.1-3.7 13 4.9 0.8-4.7-2.3-7.6-3.8-11.1 -0.3-1.8 2.1-2.9 1.5-4.8 0-1.2 0.1-2.3 0.7-3.4 0.4-0.7 1-1.5 1.8-1.5 0.9 0.1 1.3 1 1.6 1.7 0.9 2.2 1.2 4.4 0.8 6.4 2.1-3.2 5.7-4.4 9.5-5.3 -2.5-2.5-3.9-5.6-6.2-7.9 -1.7-1.7-1.5-3.9-1.1-6.1 0.9-4.9 2.4-9.7 3.8-14.4 0.7-1.8 1-3.8 1.9-5.8 -12.7 7.7-20.6 2.2-24.9-5.4 1.8 2.8 2.9 6 4.2 9.1 2 5.2 3 10.5 3.7 16 0.6 4.9-2.3 8.9-3.6 13.3 -1.1 1.7-0.1 3.7-0.8 5.5 -4.3 3.7-5.1 8.6-4.9 13.8 -0.9 1.9-1.7 1.4-2.4-0.1 -2-3.2-1.5-6.5-0.1-9.8 1.2-3.1 2.4-6.2 3.9-9.1 6.9-13.8 0.9-26.1-4.4-38.5 -1.5-3.5-3.4-0.7-4.7 0.1 -10.6 6.2-21.9 9.6-33.9 6.4 -6.5-1.8-9.5-0.6-12.1 5.5 -2.1 4.8-5.6 9-8.7 13.3 -3.8 5.3-5.1 11.1-4 17.4 0.5 2.5-0.1 4-2.7 4.9 -2.8 1.1-5.4 2.5-8.4 3.1 -6.2 1.4-12.7 1.6-15.3 9.7 -1.2 3.7-6.3 6.2-10.4 5.7 -4.9-0.6-8.6 1.3-12.5 3.4 -0.9 0.5-1.8 0.9-2.8 1 -2.9 0.3-6.2 3.4-8.4 1.1 -2.4-2.5 0.6-5.8 1.6-8.6 0.2-0.5 0.4-0.9 0.8-1.8 -5.4 0.8-10 2.5-14.2 5.3 -0.9 0.6-1.9 1.8-3.1 0.9 -1.2-0.9-0.2-2.2 0-3.2 0.7-4 2.4-7.6 4.8-10.8 3.7-5.2 9.1-8.9 12.2-14.7 2.1-3.9 6.9-4.2 11.2-3.4 10.1 1.8 18.2-2.6 25.7-8.3 3.6-2.7 3.2-7.5 3-11.7 -0.3-5.2-2.2-10-3.7-15 -0.4-1.3-1.2-1.8-2.3-2.4 -20-11-29.1-40.5-24.4-62.5 1.8-8.6 4.9-16.9 8.6-24.8 0.8-1.6 1.1-3.1 0.9-4.7 -2.1-18.4-0.6-36.5 3-54.6 0.1-0.5 0-1 0-1.5 3.2-12.8 6.5-25.7 11.7-37.8 1-2.4-0.8-4.1-0.6-6.2 -0.7-1.2-0.7-2.3 0.4-3.2 1.8 0 3.4-0.2 4.3-2.4 1.2-2.7 3-5.2 4.9-7.4 2.4 0.2 0.7-2.7 2.3-3 9.3-15.3 21-29 30-44.6 1.7-3 2.3-4.8-0.5-8 -5-5.7-8.3-12.8-11.4-19.7 -2.9-6.3-6.1-12.5-10-18.3 -0.3-0.3-0.4-0.6-0.3-0.9 0-0.3 0.1-0.5 0.2-0.5 2.6-0.4 3.3 1.8 4.4 3.3 4.9 6.9 8.5 14.6 12.3 22.1 0.9 1.8 1.9 3.5 3 5.2 3.2 5.9 3.2 5.9 9 5.9 0.7 1.4 0.6 2.9 0.3 4.4 -5.3 12.3-12.1 23.7-20 34.4 -16.3 22.5-28.4 46.9-33.9 74.3 -5 23.8-6.9 47.7-1.6 71.7 4.6 21.2 12.9 40.9 25.1 58.8 4.9 7.3 10.9 13.9 19.1 17.8 2.9 1.4 5.4 3.6 8.7 4.2 12.5 3.6 24.4 0.8 36-4 5.1-2.2 5.2-3.3 1.6-10.3 -7.6-19.2-10.5-39-7.1-59.5 1.4-8.3 4.6-15.9 9.9-22.5 4.5-5.9 9.5-11.1 17.7-11.2 2.7 0 5.3-0.2 8 0.3 2.2 0.8 4.9 0.7 6.3 2.8 -1.6-12.7-8-23.9-13.6-35.3 -4.7-9.5-9.8-18.8-14-28.6 -1.8-2.8-2.6-6.1-3.6-9.2 -0.9-2.8-1.9-3.7-4.9-2.1 -3.5 1.8-4 1.2-3.5-2.9 4.2-4.3 8.8-8.1 14.1-11.1 11.7-6.5 22.4-13.7 30.6-24.9 7.6-10.5 17-19.6 23.4-31 1.2-2.2 2.5-4.4 3.5-6.6 0.7-1.5 2.1-3.3 0.6-4.6 -1.9-1.7-2.5 1.3-3.9 1.8 -0.5 0.2-0.9 0.4-1.4 0.5 -1.3 0.1-2.3-0.6-2.8-1.7 -0.6-1.2-1-2.4-2.2-3.2 -2.8-0.9-2.5 1.3-2.8 2.8 -1 4-1.7 8.2-4.1 11.7 -2 2.8-3.9 5.8-7.1 7.5 -2.6 2.1-2.5 4.8-1.9 7.7 -0.1 4.6-3.3 7.5-6 10.6 -5 5.7-10.7 10.8-16.5 15.8 -7.9 6.7-17.1 9.8-27.1 11.4 -0.7 0 0.2 0.1-0.5 0 -2-0.3-5 0.6-5.2-2.4 -0.1-2.6 2.8-2.9 4.8-3.5 3-1 6.3-0.9 8.9-2.8 3.6-4.6 1.7-10.3 2.9-15.4 1.9-7.6 2.9-15.4 6.2-22.5 2.5-2-0.6-3.8-0.1-5.7 0.3-0.7 0.8-1.2 1.3-1.7 7.5-3.5 14.1-8 18.4-15.4 2.3-3.9 4-8 4.4-12.5 0.5-8.2 0-16.2-5.4-23.1 -3.1-5.6-7.9-9.3-13.3-12.4 -4.4-2.5-4.4-2.5-5.4 2.4 -0.4 0.7-1 1.1-1.8 0.8 -2.5-2.8-3.2-6.5-4.5-9.8 -2.2-5.9-5.4-11.3-8.1-17.1 -0.9-1.9-2.4-3.7-1.5-6.1 0.4-0.5 0.8-0.5 1.2 0 4.5 5.4 7.8 11.6 10.2 18.1 1.3 3.6 3.6 5.3 6.8 6.5 12.4 4.8 21.8 12.5 25.2 26 4.1 16.3-2.8 33.5-17.4 42.1 -3 1.8-4.9 3.8-5.9 7.2 -2.3 7.3-4.2 14.7-5.5 22.2 -0.9 5-1.5 10.1-0.9 15.5 5.5-1.9 10.6-4.1 13.9-9.1 2.2-3.3 6.2-4.4 8.7-7.3 4.3-5.1 10.1-9.4 9-17.4 -0.3-2.1 1.4-3.6 2.9-5 8.6-8 11.8-18.1 11.8-29.5 0-1.3-0.5-3 1.1-3.4 1.6-0.4 2 1.5 2.6 2.6 1.3 2.5 2.1 5.2 3.6 7.6 0.7 1.1 1.3 3.5 3.6 2.5 1.8-0.8 1.5-2.4 1.4-3.9 0-0.2 0-0.3 0-0.5 0.4-1.6-1.4-4.2 1-4.8 2.7-0.7 3.1 2.4 3.5 4 1.2 5.1 2.3 9.9-0.3 15.4 -7.2 14.9-18.1 26.9-27.9 39.9 -8.1 10.8-19.5 16.7-30 24.1 -3.3 2.3-4.2 4.4-3.2 8.1 2.7 10 6.8 19.4 11.8 28.5 5.8 10.8 11.8 21.6 16.1 33.1 0.6 1.6 0.8 2.7 3 1.6 19.3-9.9 40.5-13.6 61-19.5 14.4-4.1 28.6-8.6 43.9-8.2C289.6 214.2 300 216 309.6 221.5z"/><path class="st1" d="M62.5 50.2c-2-4.3 0.9-8.2 0.4-12.5 3.7-0.2 6.6 2.7 10.1 1.7 2-3 2.9 0 4 0.8 2.3 1.9 2.3 0.4 2.4-1.4 0.4-1.2 1.5-2.6 2.4-2 3 1.9 6.8-1.3 9.9 2.5 1.4 1.7 5.5-1.4 8.4-2.4 1.1-0.7 2.2-0.5 3.1 0.4 0.6 0.9 0.7 2 1.3 2.9 0.8 0.8 2 0.7 2.9 1.3 1.2 1.1 3.6-0.3 4.3 2 0.3 0.7 0 1.8 0.8 2.1 0.6 0.2 1-0.6 1.4-1.1 0.7-0.9 0.7-2.1 1.1-3.1 1.3-3.2 0.8-5.4-3.2-5.7 -0.4 0.1-0.9 0.1-1.3 0 -0.6-0.2-1.2-0.5-1.7-1 -2.2-1.9-2.6 0.9-3.8 1.6 -0.4 0.2-0.8 0.2-1.3 0.1 -1.8-1.6-3-0.1-4.3 0.9 -1.9-0.7-3.2-2.4-5.8-0.9 -2 1.2-3.4-1.3-4.4-3.2 -1.6 1-0.5 3.6-2.9 3.6 -2.9 0-1.8-3.2-3.4-4.1 -1.7-0.1-3.4-0.3-5.1-0.7 -3.1-0.9-2.7 2.2-3.9 3.4 -0.5 0.2-0.9 0.1-1.1-0.4 -5.5-7.6-2-14.6 1.2-21.7 1-0.1 1.3 0.7 1.5 1.5 0.1 0.7 0 1.3-0.1 2 -1.7 7.1-1.7 7 5.4 7.1 7.8 0.1 15.6-1 23.2 1.9 2.2 1.1 4.4 1.8 6.9 1 0.7 0.2 1.2 0.6 1.6 1.3 6.1 6.6 12.5 12.8 15.9 21.5 2.3 6.1 3.4 12.5 4.3 18.9 0.3 2 0.6 4.2-1.7 5.2 -2 0.9-3.5-0.6-4.8-1.8 -7.9-7-14.5-15.1-20-24.1 -1.4-2.6-3.4-3.2-6.2-2.2 -2.3 0.8-4.7 1.4-7.1 1.8 -7.1 0.8-13.8-0.5-20.4-3 -0.8-0.3-1.5-0.6-2.3-1 -3-1.6-4.7-0.8-5.1 2.6 -0.2 1.3-0.2 2.7-0.9 3.8C63.7 50.4 63.2 50.9 62.5 50.2z"/><path class="st2" d="M52 163.2c-1.3 0.6-1.1 1.9-1.2 3 -3.9-9-7.7-17.9-14.5-25.4 -3.1-3.4-3.6-8.7-4.3-13.3 -0.6-3.9-0.9-7.9-1.3-11.9 -0.3-3-0.1-6-3.2-7.8 -0.5-0.3-0.8-1.1-0.9-1.7 -1.4-9.8-3.5-19.6-0.7-29.5 0.4-0.6 1.1-0.8 1.7-1.1 2.4 0.1 2.6-3.9 5.5-2.9 0 0.5-0.1 0.9-0.3 1.4 -1.9 3.9 3.3 6.4 2 10.2 2.7-4.9 5.5-9.5 10.1-12.8 0.6-0.4 1.6-0.9 2.2-0.7 1.1 0.4 0.8 1.7 0.6 2.6 -2.9 11.4-4.6 23-4.6 34.8 0 0.7-0.4 1.2-1.1 1.4 -0.2-0.1-0.4-0.3-0.6-0.4 -3.5-5.6-1.2-11.4-0.8-17.1 0.1-1.7 1-3.1 1.6-4.6 0.5-1.2 0.2-2.3-1.2-2.7 -1.2-0.3-1.8 0.5-2.2 1.5 -0.9 2.3-1.1 4.7-1.6 7.1 -0.5 2.4 1.4 6.4-1.7 6.9 -3.5 0.5-3.1-3.9-4.2-6.3 -1.2-2.5-0.1-5.2-0.1-7.8 0-1.7 0.8-4.6-2.9-3.6 -0.4 3.5-0.1 7-0.2 10.5 0.5 5-0.2 10.2 4 14.2 0.5 0.7 0.7 1.4 0.9 2.2 1 3.8 1 7.8 1.9 11.6 1 8.8 3.2 17 9.4 24 4.1 4.6 6.8 10.1 8.1 16.2C52.6 161.8 52.5 162.5 52 163.2z"/><path class="st3" d="M74.9 14.5c-0.3-0.3-0.6-0.7-0.9-1 1.6-3.3 3.3-6.5 4.8-9.8 2-4.1 5.2-4.5 8.6-2.4 2 1.2 3.7 1.3 5.6 0.6 6.6-2.4 13-2 19.2 1.4 2.2 1.2 4.6 1.6 7.2 0.9 3.1-0.8 5.5 0.5 5.7 3.8 0.2 3.7 2 6.6 3.6 9.6 -0.2 0-0.3-0.1-0.4-0.2 -3.1 1.2-3.7-1.7-5.1-3.2 -1.4-1.6-1.2-4-2.6-5.7 -4.5-0.9-8.9-2-13.2-3.8 -4.7-1.9-9.4-0.4-14 0.8 -2.3 0.6-4.5 1-6.5-0.7 -2.6-2.2-3.9-0.2-5.5 1.6C79.1 8.9 78.7 13.1 74.9 14.5z"/><path class="st4" d="M62.7 150.1c-0.8 0.9 0.5 3.1-1.8 3.2 -2.5-1.7-3.3-4.7-5.2-6.9 -2.3-3.5-4.7-6.8-7.3-10.1 -5.6-7.3-6.1-16.4-8.3-24.8 -0.3-1-0.1-2.5 1.7-2.2 0 0 0.2 0.1 0.2 0.1 0.6 1.9 1.5 3.7 1.8 5.6C45.9 128.9 54.5 139.4 62.7 150.1z"/><path class="st5" d="M79.7 39.3c1.3 1.2 1.6 2.7 0.2 3.8 -1.1 0.8-2-0.6-3-1.1 -1.5-0.6-1.3-3.8-4-2.6 -0.1-1.4-0.1-2.9-0.2-4.3 0.3 0.1 0.6 0.1 0.9 0.1 1.8-0.9 2.3-3.2 4.2-4 2 0.2 4.1-0.3 5.9 1.1 1.1 3.2-1 4.1-3.5 4.5C77.7 37.2 78.6 38.1 79.7 39.3z"/><path class="st6" d="M62.5 50.2c0.4-0.3 0.9-0.6 1.3-1 2.2-0.5 2.7 1.4 3.8 2.5 1.2 2.1 4.5 3.1 3.2 6.3 0 0.5 0 1 0 1.5C68 56.4 65.2 53.3 62.5 50.2z"/><path class="st7" d="M28 76.2c-0.7 0.1-1.4 0.2-2.1 0.3 1.1-3.1 3.4-5.2 5.9-7.1 0.9 0.5 1.5 1.1 0.9 2.2C30.7 72.5 30.3 75.3 28 76.2z"/><path class="st8" d="M32.7 71.2c-0.3-0.6-0.5-1.3-0.8-1.9 0.7-0.6 1.4-1.6 2.4-1.1 0.4 0.2 0.4 1.5 0.2 2.2 -0.4 1.2-1.1 2.2-1.7 3.4 0-0.5-0.1-1.1-0.1-1.6 -0.3-0.2-0.5-0.4-0.4-0.6C32.5 71.4 32.6 71.2 32.7 71.2z"/><path class="st9" d="M154.7 422c0.1 1.5 0.2 2.9 0.3 4.4 -0.1 1-0.1 2-0.2 3 -1.7 1-0.9 5.1-4.5 3.6 -2.7-3-4-6.7-5.2-10.4 -0.9-2.6-1.1-5.5 1.6-7.6 0.4-0.6 0.3-1.6 1.4-1.6C151.9 415 153.5 418.3 154.7 422z"/><path class="st10" d="M146.6 415.1c-2.1 6.8 0.9 12.4 4.2 18 0.4 0.9 0 1.2-0.9 1 -0.5-0.6-1.1-1.2-1.6-1.9 -2.5-3.3-2.8-8-7.2-10.1 -0.8-0.4-0.8-2.7-1.1-4.1 0.6 0.1 1.2 1.3 1.9 0.2 1.5 0.1 1.1-1.2 1.4-2 0.5-1.3 0.5-3.1 2.6-3C145.8 413.9 145.8 414.7 146.6 415.1z"/><path class="st11" d="M30.8 226.8c0.5 0.6 0.6 1.3 0 1.7"/><path class="st12" d="M149.9 434.1c0.3-0.3 0.6-0.7 0.9-1 2.2-0.3 1.4-3.7 3.9-3.7 0 2-1 3.8-2 5.4C151.2 437.3 150.6 435.4 149.9 434.1z"/><path class="st13" d="M138.8 264.2c-16.3 23.9-12.7 49.2-5.2 74.8 0.7 2.4 1.5 4.7 2.3 7.1 1 1.8-0.2 2.9-1.4 3.7 -8.9 5.9-17.9 11.6-29.4 10.3 -2.8-0.3-5.5 1.1-8.3 1.2 -3.2-0.2-5.7-2.1-8.2-3.9 1.1-1.6 3-0.7 5.2-1.3 -7.9-2.8-11-9.7-15.9-14.8 -1.2-1.2-1.9-2.9-3.4-3.6 -6.1-3-8.6-8.2-11-14.3 -6.6-16.7-13.2-33.3-17-51 -3.4-15.5-4.2-31.2-2.8-47 0.3-2.8 1.2-5.5 2.1-8.2 1.1-3.4 1.6-6.8-0.7-10 3.1-17.8 9.6-34.4 18.2-50.2 8.7-16.1 20.7-30 29.4-46.1 2.1-3.9 4.1-7.9 6.1-11.8 7.9-3.1 17.4 2.1 18.8 10.3 1 6.3 1.4 12.6-0.9 18.7 -3 8.1-3.6 16.5-4.2 24.9 -0.7 9.2-1.7 18.6 1.2 27.7 0.5 1.6 0.5 3.3 0.6 4.9 0.3 5 1.2 9.9 3.9 14.2 1.8 2.9 2.2 5.9-0.3 8.7 -2.3 2.5-2 5.1-0.6 7.8 2.4 4.7 3.1 9.4 2.1 14.9 -0.9 4.7 0.3 10 4.8 13.3 3.7 2.7 5.7 6.5 6.8 10.7 0.9 3.4 1.8 6.5 6.4 6.1C138.5 261.5 139.8 262.4 138.8 264.2z"/><path class="st13" d="M309.7 288.2c-3.7 7.1-9.1 13-13.2 19.8 -7.3 11.9-13.3 24.5-17.1 38 -0.8 2.6-0.4 5.3-0.8 7.2 -10.1-34-12.1-68.2 7.2-100.8 0-1.4 0.5-2.8 1-4.3 -1.3 0.7-1.8 2.1-3.2 2.2 -0.3 0.6-0.7 1.1-0.9 1.7 -3.4 9.2-7.6 16.5-19 18.9 -20.1 4.2-33.9 18.7-47.4 33.1 -3.9 4.1-7.1 8.8-11.6 12.4 -5 4.1-10.4 7.4-16.7 8.9 -1.1 0.3-2.2 0.8-3.3 0.1 1-13.6 1.7-27.2 0.1-40.8 -0.9-7.7-5.5-13.8-7.8-20.8 -1.9-5.8-4.2-11.7-3.2-18.2 1.6 1 3.2 0.5 4.8-0.1 14.7-5.7 29.7-10.1 44.7-14.9 0.6-0.2 1.2-0.5 1.4-1.2 3.4-2.2 7.4-2.1 11.1-3.1 5.5 0.5 10.3-2.3 15.5-2.9 19.6-2.4 39.2-3.4 57.8 5.1 3.3 1.5 4.6 4.7 6.5 7.4 8.5 12.1 8.3 24.5 1.4 37.1 -2.5 4.5-4.3 9.4-7.6 13.5C309 287 309.3 287.6 309.7 288.2z"/><path class="st14" d="M70.8 58.1c-0.2-2.7-3-3.6-4-5.8 -2.1-6.7-1.7-7.5 5-9 7.2 2.2 14.5 3.6 22 3 2.2 0.4 4.3 0.2 6.4-0.4 2.6-0.8 4.9-0.4 7 1.4 5.5 8.5 11.4 16.6 19.2 23.3 1.4 1.2 2.7 3.3 4.5 2.5 2-1 0.8-3.5 0.6-5.3 -1.3-13.5-6.1-25.2-16-34.9 -1.3-1.2-5-0.9-3.8-4.4 0.4-1.7 0.6-3.5 0.1-5.2 -3.3-0.4-4 3.8-7 4 -10-2.8-20.2-2.5-30.4-1.3 -2.6 0.3-3-0.5-2.4-2.5 0.8-3 1.9-5.9 2.9-8.9C77 11.1 79 7.6 81.2 4.3c1.4-2.1 3.2-3.3 5.6-1.1 1.2 3.7 4.5 3 6.6 2.3 7.3-2.3 14.3-2.3 21.1 1.6 0.7 0.4 1.6 0.1 2.4 0.3 1.1-0.1 1.4 3.3 3.1 0.8 0.4-0.5 0.9-0.9 1.6-1 1.6 3.7 1.7 8.3 6.5 10 -1.2 1.5 0.2 2.5 0.8 3.5 5.2 9.4 9.5 19.2 12.9 29.3 1.9 1.7 1.5 4 2.1 5.4 0-1.7-1-4-1.1-6.4 0.6-1.9-2.1-4.3-0.3-5.4 1.8-1.2 4 1 5.8 2 5.8 3 11 6.8 14.2 12.7 5 7.6 5.1 16.3 6.1 24.8 -2.4 14-10.6 23.2-23.8 28.1 -3.9-1.4-5-4.3-4.4-8.2 1.1-2.1 3.7-2.6 4.9-4.5 -6.9 5.2-10.8 5.1-17-0.7 -2.4-2.3-4.9-4.5-7.2-6.8 -3.9-5-11.3-5.7-15.9-1.3 -2.3 2.2-5 3.2-8.1 1.9 -2-0.8-4.2-0.9-6.2-1.6 -0.4-0.2-0.8-0.5-1.2-0.8 -5.1-6.8-7.6-15.1-12.3-22.1C75.3 64.1 73.7 60.6 70.8 58.1z"/><path class="st13" d="M178.9 273.9c3.6 6.4 4.4 13.6 4.4 20.7 0.1 15.9-0.9 31.8-5.5 47.2 -2.1 6.9-5 13.3-10.4 18.4 -7.2 6.8-13 6.4-19.4-1.2 -8.2-9.7-12.1-21.2-14.7-33.3 -3-13.9-3.9-27.9-0.5-41.9 0.2-0.6 0.6-1.2 0.9-1.7 3.4-2.2 5.6-5.6 8.2-8.5 7.9-8.8 26.9-10.7 35.4-0.5C177.7 273.6 178.1 274.2 178.9 273.9z"/><path class="st15" d="M90.7 89.3c2.2-0.1 4.2 0 6.3 1.1 3.9 2 6.9 0.4 8.5-3.2 1.1-2.4 2.1-2.8 4.5-2.1 2.3 0.7 4.8 0.8 7.3 1.3 2.8 0.5 5.2 1.4 4.6 5 1.4 0.7 2.5 1.7 3.4 2.9 3.9 5.4 8.8 8.9 15.6 9.2 0.9 2.8 1.8 5.7 4 7.8 -0.3 0.4-0.7 0.7-1 1.1 -0.9 0.8-1.8 1.6-2.9 2.1 2.2 2.8 2.6 5.2 0.7 8.7 -4 7.4-4.3 15.9-5.3 24.2 -0.4 3.3 0.5 6.6-0.6 9.8 -4.4 3-10.4 1.6-15 5 2.1 2 4.2 0.9 6 1.3 0.1 0.5-0.1 1-0.6 1.3 -6.4 3.6-6.6 4.7-0.9 9.6 1.4 1.2 2.9 2.2 3.9 3.8 0.4 2.1 0.2 4.1-2.2 4.8 -2.3 0.7-4.2 0-5.9-1.5 -1-0.9-1.7-3.1-3.4-2.2 -1.8 0.9-1 2.9-0.9 4.5 0.3 4.5 1 8.9 2.9 13.1 0.8 1.8 1.5 4 3.4 4.7 3.5 1.4 6.3 2.9 5.2 7.4 -0.2 0.9 1 1.6 1.9 2.1 5.6 3.4 7.3 14.6 5 20.2 -0.6 1.5-0.8 2.4 0.6 3.4 0.3 0.2 0.6 0.4 0.7 0.6 2.4 5.8 7.1 6.2 12.5 5.6 4.2-0.4 9.8 8.4 8.1 12.2 -0.4 0.9-1.5 0.6-2.1 1.1 -7.2 0.5-11.6 5.3-16 10.1 -0.2-1.1-0.7-2.3-1.8-1.7 -5.2 2.8-6.3-1.6-6.9-4.5 -1.2-5.7-3.7-9.9-8.4-13.4 -4-2.9-5.2-9-4.1-12.5 1.8-5.9 1-10.5-1.8-15.1 -2.3-3.9-1.8-6.7 1.4-9.5 1.4-1.2 2.2-2.7 1-4.4 -5.4-7.2-4.4-16.1-6.4-24.2 -2.6-10.2-0.3-20.2-0.2-30.4 0.1-8.7 2.8-16.5 4.9-24.7 1.5-6.1-0.3-12.2-0.7-18.3 -0.1-1.5-1.5-2.1-2.7-2.7 -4.5-2.1-9.1-4-14.3-3.7 0-1.6 0.1-3.2 0.1-4.8C95.7 93.3 91.4 94.2 90.7 89.3z"/><path class="st16" d="M154.8 254.1c3.3-3.8-0.5-6.6-1.6-9.6 -0.7-2-2.5-3.9-5.6-2.3 -2.6 1.3-5.6-1.8-8.5 0.4 -0.4 0.3-1.2-0.9-1.3-1.8 -0.3-2.9-1.5-5-4.4-6 -0.9-0.3-1.6-2.2-1.2-2.4 4.6-1.8 1.7-5.5 2.2-8.3 0.8-4-1.9-10.2-5.6-12.2 -2.3-1.2-3.6-2.4-1.9-4.9 0.7-1.1 1-2.6-0.6-2.8 -8.2-1-8-8.3-10.2-13.7 -1-2.4 0-5.2-1-7.9 -0.9-2.2 0-4.6 2-5.7 2.2-1.2 3 1.3 3.9 2.8 1.2 1.8 2.8 2.8 5 2.5 2.4-0.3 2.8-2 2.8-4 0.6-0.5 1.2-0.6 1.8 0 -0.2 0.8-0.9 1.7-0.6 2.2 0.7 1.3 1.6 0.3 2.4-0.2 0.8-0.6 1.7-1 2.4-1.7 2-2.1 3.1-0.9 3.8 1.1 1.4 3.9 2.7 7.9 4 11.8 0.8 8.1 4.5 15.3 7.9 22.4 5.2 11 9.8 22.2 14.2 33.5 1.7 4.4 1.5 4.9-0.9 6.9C160.7 254.3 157.8 254.2 154.8 254.1z"/><path class="st13" d="M130.6 178.3c-0.6 0-1.2 0-1.8 0 -3.3-1.1-5.1-4-7.8-6 -2.1-1.5-1.1-3.5-0.6-5.4 0.5-1.9 1.6-2.8 3.5-2.6 1 0.1 2 0 2.8-0.8 15.3-2 26.7-10.7 36.9-21.5 3-3.1 6.2-5.9 8.7-9.5 1.3-2 2.5-3.9 2.6-6.3 -0.4-2.8 2.1-4.9 1.8-7.7 3.3-1.5 4.9-4.6 7.1-7.2 3.1-2.9 4.3-6.7 4.5-10.8 0.2-2.8 0.9-5.2 4.6-4.4 0.6 1 1.2 2.1 1.8 3.1 0.4 4.5-1.2 8.6-3.2 13.2 2.6-3.7 2-8.3 5.5-10.9 0.1-0.1 0.3-0.1 0.4-0.2 1.7-1.2 1.5-5.7 5.1-3.6 3.2 1.8 1.2 4.7 0.1 7 -6.5 13.2-15.4 24.8-25.3 35.5 -6.5 7.1-10.9 16.3-20.4 20.6 -3.3 1.5-6.3 3.7-9.5 5.4C141.3 169.4 136 173.9 130.6 178.3z"/><path class="st17" d="M87.8 367.4c-3.9 7.5-9.4 14-13.6 21.4 -2.1 3.7-3 6.9-1.4 10.7 1.5 3.7 0.3 5.4-3.6 6.1 -4.9 0.9-9.6 2.5-14.4 3.5 -2.1 0.5-4.1 1.1-4.4 3.3 -0.6 3.7-3.2 5.7-5.9 7.5 -4.6 3.2-5.1 3-7.4-2 -1.7-3.6-4.5-5.6-8.5-6 2.7-6.4 4-7 10.6-6.2 4.5 0.5 7.7-2.2 11-4.6 1.3-1 0-1.6-1.1-1.6 -2.1 0.4-4.5 2.3-6-1 1.5-0.5 3.1-1 4.6-1.6 11.2-4.6 15.5-13.3 12.8-25.4 -0.5-2.4-1.1-4.8-1.7-7.2 -0.1-1.8 1.2-1.2 2-1 8.5 2.2 17.1 3 25.8 2.8C87.3 366 88.2 366.2 87.8 367.4z"/><path class="st13" d="M45.7 349.3c-3.2-1.9-5.1-4.9-6.9-8.1 -0.7-5.8-2.5-11.2-3.9-16.8 -2.8-11.6-2.3-23.3-0.4-35 0.7-4.2 1.3-8.5 3.3-12.4 3.5 16.4 8.9 32.2 16.6 47.2 5 9.8 10.8 19 18.3 27.1 -0.4 3.3-2 4.3-6 3.4 -4.7-1-9.2-2.6-13.8-3.8C50.6 350.3 48.1 349.8 45.7 349.3z"/><path class="st18" d="M44.9 207.3c3.7-0.1 3.4 2.5 3 4.8 -1.5 7.9-3.6 15.7-3.6 23.9 -0.1 9 0.1 17.9 2 26.9 1.5 7.3 2 14.8 4.5 21.8 3.8 10.6 6.3 21.6 11.3 31.8 2.2 4.4 5 8.8 4.9 14.2 0 2.6 3.3 2.2 5 3.4 6 4.1 9.6 10.3 14.2 15.5 2.1 2.3 4 4.2 7.1 4.9 1.5 0.3 3.2 1.3 2.9 2.9 -0.5 1.9-2.5 1.1-3.8 0.8 -1.3-0.3-2.5-0.8-3.9-0.5 -8.8-3.3-14.6-10.2-19.7-17.6 -20.6-30.3-31-63.8-28.8-100.6C40.7 228.5 41.7 217.7 44.9 207.3z"/><path class="st19" d="M167.9 371.5c-0.3 1.3-0.6 2.6-1 3.8 -2.9 8.4-4.8 16.6 3.5 23.4 0.6 0.5 0.8 1.4 1.3 2.4 -4.3 1.1-8.4 2.3-11.5 6.3 -0.6-3.5-1-6.3-1.5-9.3 -2.3 1.4-2.1 3.3-2 5.2 -3.1 2.6-9.1 0.3-10.2-4 5.5-10 3.3-19.9 0.2-30 2-1.4 3.4 0.2 4.9 0.9 4.3 2.1 8.4 2.4 12.7 0C165.8 369.5 168.2 367.2 167.9 371.5z"/><path class="st20" d="M309.7 288.2c-1.9-0.7-1.4-1.6-0.6-3 3-5.2 6.2-10.3 8.4-15.8 3.7-9.4 5.2-19-0.4-28.4 -0.3-0.4-0.6-0.9-0.7-1.3 -2.6-8.6-10-12-17.3-13.8 -15.1-3.7-30.6-3.7-45.9-1.5 -3.7 0.6-7.7 1.1-11.4 2.5 -1.8 0.7-4.2 1.2-6-0.7 15.7-5.3 31.6-8.7 48.3-8 20.2 0.9 35.4 13 39.9 32.7 1.1 4.7 0.7 9.2-1 13.7C320 273.2 314.8 280.7 309.7 288.2z"/><path class="st20" d="M178.9 273.9c-0.3 0.6 0.1 2.3-1.6 0.8 -4-3.8-8.3-6.3-14.2-7 -7-0.9-12.8 0.9-17.9 4.9 -3.4 2.7-7.1 5.5-9 9.7 -0.8 1.8-1.9 2.6-2.5-0.2 2.4-9.3 7.2-17.1 15.5-22.2 8.2-5 18.1-2.8 24 4.8C175.4 267.6 177.9 270.3 178.9 273.9z"/><path class="st21" d="M163.7 254.3c2.3-2.2 0.4-4.5-0.3-6.4 -5.7-15.9-13.3-30.9-19.7-46.5 -1.2-2.9-4.2-6.2-1.1-9.8 13.1 21.6 27.5 55.2 27.9 65.3C168.1 256 165.9 255.1 163.7 254.3z"/><path class="st22" d="M37.9 277c-0.9 11-3.8 21.6-3.4 32.8 0.3 7.9 2.5 15.2 4 22.7 0.6 2.7 3.7 5.7 0.3 8.6 -12.7-21.2-12.5-42.8-2-64.7 0.1-0.1 0.2-0.3 0.3-0.4C37.9 276 37.8 276.6 37.9 277z"/><path class="st23" d="M96.7 361.3c2.9-2.6 6.3-3.2 10-2.5 7.1 1.3 24.9-6.3 29.1-12.7 5.1 8.9 5 8.8-4.5 12.5 -10.6 4.1-21.2 6-32.5 3.7C98 362.1 97.2 362.1 96.7 361.3z"/><path class="st22" d="M224.7 229.3c1.7 2.1-1 2.4-1.5 2.6 -4.9 1-9.3 3.6-14 4.9 -10.6 2.7-20.8 6.2-31 10.2 -1.3 0.5-4.4 3.3-4.4-1.4C189.8 237 207.4 233.6 224.7 229.3z"/><path class="st24" d="M145.7 413.2c-1.6 1.5-1.3 3.6-1.9 5.3 -1 2.7-1.3-0.6-2-0.3 -2-5.6 0-11.2 4.9-14.1 3.4-1.7 6-1 8 2.3 3 3 5 6.5 5 10.9 0 1.3 0.2 3-1.5 3.2 -2.2 0.3-1.3-1.7-1.5-2.7C154.6 411 150.4 409.2 145.7 413.2z"/><path class="st25" d="M167.9 371.5c-0.3-0.6-0.4-2.1-1.4-1.3 -6.3 5.4-12.3 3.6-18.3-0.6 -0.4-0.3-0.9-0.2-1.4-0.3 -1.7-3.7-3.3-7.3-5-11 4.6 3.2 7 8.9 13.1 10 6 1 11-1.3 15.8-5.2C169.8 365.9 168.9 368.7 167.9 371.5z"/><path class="st26" d="M135.7 157.1c-1.9-10.6 0.3-20.9 3.1-31 0.3-1.1 0.7-2.2 1.2-3.2 3.2-5.4 3.2-5.5-2.5-8 0.5-1.1 1.5-1.2 2.4-1.5 1.7 1.2 5.5-0.2 4.9 3.9 -4.1 11.7-6.8 23.7-7.6 36.1C137.1 154.6 137.8 156.5 135.7 157.1z"/><path class="st27" d="M45.7 349.3c1.1-0.7 1.6-1.9 3.7-1.1 6 2.2 12.2 3.9 18.3 5.5 2.1 0.6 4.3 0.3 5-2.4 1.3 1.3 2.7 2.6 4 4 1.1 3.2-1.5 3.1-3.3 3.3 -5.2 0.8-10.2-0.5-14.9-2.7 -2.6-1.2-5.2-1.9-7.9-2.6C48.8 352.3 46.8 351.4 45.7 349.3z"/><path class="st28" d="M167.9 411.5c-1.3 1.4-1.1 3.2-1.2 5 -0.2 2.8-1.5 1.7-2.8 0.8 -2.9-3.9-1.8-7.4 1-10.8 4.7-2.1 9-1.7 12.7 2 2.4 2.4 3.2 5.3 0.8 8.4 -2.4-1.3-2.1-4.6-4.4-5.7C171.8 410.3 169.9 410.9 167.9 411.5z"/><path class="st29" d="M16.7 408.4c4.3 0.6 4.6 4.2 5 7.3 0.5 3.5-2.8 3-4.8 3.6 -3.4 1.1-6.9 2-10.4 3C6.9 415.4 12.9 412.7 16.7 408.4z"/><path class="st30" d="M172.7 411.4c3.7 5 4.4 13.4 1.6 19.7 -4.8-5.4-5.6-11.8-5.5-18.4C169.6 410.7 170.8 409.9 172.7 411.4z"/><path class="st31" d="M43 398.5c1.8 1.6 4.1 0.3 6 1 -3.4 2.3-6.9 3.9-11.3 3.1 -5.6-1-10.3 3.1-13.1 11.1 -1.6-1-1.9-2.9-2.9-4.2 0-4 2.6-6.2 5.8-7.8 1.5-0.7 3.2-0.7 4.3-2.2C35.7 400.8 39.3 399.1 43 398.5z"/><path class="st25" d="M87.8 367.4c-8.9 0.1-17.8 0-26.4-3 -0.8-0.3-1.8-1.1-2.7-0.1 -1.2-1.7-1.4-3.1 1.3-2.3 8.3 2.4 16.7 2.5 25.2 1.3C88.5 362.8 90.1 364 87.8 367.4z"/><path class="st32" d="M50.7 353.3c4.9-2 8.4 1.7 12.5 3.1 4.4 1.5 11.4 1.3 13.6-1.1 1.7 1.4 3.5 2.8 5.8 4.7C70.7 361 60.1 360 50.7 353.3z"/><path class="st33" d="M34.8 418.9c1.8 1.9 0.6 3.3-0.9 4.5 -4.8 3.7-10.1 6.6-16.8 7.5 0.3-2.7 1.2-4.8 2.7-6.6 3.6-1 7.2-2 10.4-4C31.6 419.3 33.1 418.9 34.8 418.9z"/><path class="st34" d="M34.8 418.9c-4 3.1-8.9 4.2-13.2 6.8 -1.4 0.8-1.6-0.4-1.8-1.4 0.5-2.3 2.5-3.4 3.8-5C29.1 413.1 29.1 413 34.8 418.9z"/><path class="st14" d="M31.8 399.4c0.7 1.2 0.6 2.6-0.8 2.6 -5.2-0.1-7 3.9-9.3 7.4 -1.3-1.8-4.7-2.4-3.1-5.8 1.5-3.3 3.9-5.1 7.6-5.4C28.1 398.1 30 398.4 31.8 399.4z"/><path class="st35" d="M184.7 325.2c7.1-2.1 13.4-5.8 20-9 -3.1 4.3-7.1 7.7-11.1 11 -1.4 0.9-3 1.3-4.5 1.8C185.5 330.4 184.6 329.5 184.7 325.2L184.7 325.2z"/><path class="st36" d="M56.8 146.2c2 2 3.5 4.3 4.1 7.1 -1.8 3.3-3.8 6.5-5.4 9.9 -1.4 2.9-2.4 0.7-3.5 0 -0.1-0.6-0.2-1.2-0.3-1.9 2.5-3.4 4.3-7 3.8-11.5C55.4 148.6 55.6 147.2 56.8 146.2z"/><path class="st37" d="M16.7 408.4c0.1 1.7-1.2 2.6-2.2 3.7 -3 3.1-6.5 5.9-7.9 10.2 -0.6 0-1.3 0.1-1.9 0 -0.3 0-0.7-0.1-0.5-0.9C4.8 417.4 12.7 409.1 16.7 408.4z"/><path class="st38" d="M168.6 83.2c-1.9-1.7-1.9-4-1.9-6.4 0-5.1-0.7-10-3.4-14.6 -0.7-1.1-2.2-2.3-0.8-3.9C168.9 65.6 169.5 74.3 168.6 83.2z"/><path class="st39" d="M184.6 325.2c0.1 2.9 0.9 4.4 4.2 2.7 1.4-0.7 3.2-0.5 4.8-0.7 -3.2 2.7-6.5 5.4-10.4 8.6C182.9 331.5 183.4 328.3 184.6 325.2z"/><path class="st40" d="M197 101.4c-2.1 4.6-2 10.2-7.3 13.4 1.7-5.2 3.3-10.4 5-15.7C194.8 100.5 195.6 101.3 197 101.4z"/><path class="st41" d="M192.9 95.9c-2.5 0.8-4.1 2.1-3.7 5 0.6 4.3-2.4 7.2-4.2 10.5 -0.2 0.4-0.9 0.2-1.2-0.2 2.2-3.8 3.6-7.9 3.7-12.2C187.7 94.5 189.7 94.5 192.9 95.9z"/><path class="st42" d="M90.7 89.3c1.3 3.9 6.2 2.1 8 5.1 -1.1 0.2-1.8 0.9-1.9 2 -0.5 2.7-1.8 2-2.7 0.5 -1.6-2.5-3.9-4.5-4.5-7.5C90 89.3 90.4 89.3 90.7 89.3z"/><path class="st43" d="M154.7 422c-2.3-2.8-4.5-5.7-6.8-8.5C153.3 412.3 155 414.4 154.7 422z"/><path class="st44" d="M154.7 406.4c-2.4-1.5-5.1-2.4-8-2.3 0.2-1.6-2.1-3.2-0.1-4.9 2.6 3.4 6.3 3.9 10.2 4C158.9 406.2 154.4 404.7 154.7 406.4z"/><path class="st45" d="M164.8 406.4c-1.1 3.5-2.1 7.1-1 10.8C158.9 414.2 159.2 410.7 164.8 406.4z"/><path class="st46" d="M283.5 250.1c1.5-1.5 1.7-5.6 4-4.3 2 1.1-0.3 4.2-1.5 6.2 -0.1 0.1-0.2 0.2-0.4 0.3C285 251.6 284.3 250.9 283.5 250.1z"/><path class="st47" d="M176.7 118.4c1.2 0 1.9 0.4 1.3 1.7 -1 2-2 4-3 6C172.5 122.8 174.6 120.6 176.7 118.4z"/><path class="st48" d="M144.8 117.3c-0.1-3.2-4-1.7-4.9-3.9 1.3-0.3 2.6-0.7 3.9-1C144.1 114 148.7 114.8 144.8 117.3z"/><path class="st49" d="M142.9 49.1c1.2 2.3 1.6 4.8 1.9 8.1 -2.2-2.5-2.2-4.9-2.9-7.1C142.2 49.8 142.6 49.4 142.9 49.1z"/><path class="st50" d="M172.7 411.4c-1.6-0.6-2.8 0.1-3.9 1.2 -0.3-0.4-0.6-0.8-0.9-1.2 1.9-2.6 3.9-3 6-0.3C173.5 411.2 173.1 411.3 172.7 411.4z"/><path class="st51" d="M189.9 87.8c1.8 1.8 2.6 3.2 1.2 5.3C188.9 91.7 189.9 89.9 189.9 87.8z"/><path class="st52" d="M79.7 39.3c-2.3 1.1-3.1-0.2-2.7-2.1 0.1-0.9 0.2-2.9 2.4-1.8 3.3 1.6 3.7-0.9 4.4-3.1 1.8-0.2 0.9 1.3 1.1 2 0.2 1.1 0.6 2.2 1.8 1.7 1.9-0.7 0.2-1.2-0.2-1.9 -0.5-1 0.1-2.1 1-2.3 1-0.2 2.8-0.6 3.1 0.5 1.5 7.2 4 2.4 6.5 0.4 1.2 1.3 0.4 4.1 2.7 4.6l-0.1-0.1c-2.3 2.2-4.5 4.3-8.3 4 -1.2-0.1-1.5 0-1.9-1.1 -0.8-2.2-1.9-3.7-4-0.9 -1 1.4-2.1 1.4-2.9-0.5C81.3 35.8 80.6 38.6 79.7 39.3z"/><path class="st53" d="M122.2 57.2c-1.1 0.1-2.8 1.5-4-0.5 -0.3-0.5 4.8-5.8 5.5-5.6 1.8 0.4 2 2 1.9 3.5 0 1.5 0 3-0.4 4.4 -0.4 1.3-1.5 2.5-2.2 3.7 -0.6-0.5-1.3-1-1.8-1.6C119.4 59 123.8 59.5 122.2 57.2z"/><path class="st54" d="M71.8 43.2c-0.8 0.6-1.5 1.4-2.4 1.6 -3.4 1-3.9 2.8-1.9 5.5 0.7 1 1 1.8-0.7 1.9 -1-1-2-2-3.1-3 0-0.7-0.1-1.3-0.1-2C64.4 39.9 65.3 39.5 71.8 43.2z"/><path class="st55" d="M110.8 43.4c-1.2-0.8-3.2 1.2-4.1-1.1 1-2.7 4.6-3.6 5-6.8 1-1 2.7-0.8 4 0.4 1.7 1.7 2.2 3.5 0.2 5.4C114.6 42.8 113.6 45.2 110.8 43.4z"/><path class="st56" d="M104.8 27.1c1.8-1.9 3.5-3.9 5.4-5.8 1.3-1.3 2.3-1.1 2.6 0.9 0.3 2.1-0.6 3.7-2.3 4.9C108.6 30.9 106.7 27.5 104.8 27.1z"/><path class="st57" d="M107.1 47.1c-2.8-0.8-5.5-0.2-8.2 0.1 -1.7 0.2-3.7 0.8-5.1-1 2.2-0.6 4.5-1.1 6.6-1.9C103.7 43 105.9 43.8 107.1 47.1z"/><path class="st58" d="M75 27.4c6.2 0 12.5 0 18.7 0C87.5 28.9 81.2 28.9 75 27.4z"/><path class="st59" d="M111.7 35.4c0.5 3.8-2.4 5.2-5 6.8 -1-0.3-2.1-0.6-3.1-1 0.6-4.2 4.2-4.7 7.2-5.9C111.1 35.4 111.4 35.4 111.7 35.4z"/><path class="st60" d="M119.5 46.9c1.8 4.3-3 4.9-4.1 7.6C116.2 51.7 114.4 47.7 119.5 46.9z"/><path class="st61" d="M110.8 43.4c2.1 0.3 3.5-1.2 5.1-2.1 0 3.3-1 5.9-5.1 6.5C110.8 46.3 110.8 44.8 110.8 43.4z"/><path class="st62" d="M128.8 69.4c-4.5-2.6-3.7-5.6-1.3-9.2C128 63.3 129.3 65.9 128.8 69.4z"/><path class="st63" d="M77.9 31.2c-0.9 1.9-1.3 4.2-4.2 4C74.1 29.8 74.1 29.8 77.9 31.2z"/><path class="st55" d="M110.9 35.4c-2.4 2-4.8 3.9-7.2 5.9 -1.1-0.7-0.9-1.9-0.9-3 0.6-0.6 0.2-1.7 1.2-2.1 0.3 0 0.5 0 0.8-0.1 1.8-0.3 2.8-2.3 4.8-2C110 34.5 110.4 35 110.9 35.4z"/><path class="st64" d="M109.5 34.1c-1.6 0.7-1.7 5-4.8 2C105.8 34.2 105.5 29.1 109.5 34.1z"/><path class="st65" d="M103.9 36.2c-0.3 0.8-0.2 1.7-1.2 2.1 -0.7-1.2-1.8-1.2-3-1.1 0 0 0.1 0.1 0.1 0.1 0.3-1.8 1-3.6 3-3.7C104.3 33.5 103.6 35.2 103.9 36.2z"/><path class="st66" d="M119.6 42c2.7 2.5 3.2 4.8 3.5 7.1C121.6 47.3 120.1 45.6 119.6 42z"/><path class="st67" d="M110.5 27.1c0.8-1.6 1.5-3.2 2.3-4.9 1.9 2.4 0 4.1-1.1 6C111.3 27.9 110.9 27.5 110.5 27.1z"/><path class="st14" d="M56.8 146.2c-0.1 3.3 0.3 6.8-0.4 9.9 -0.5 2.2-1.6 4.8-4.7 5.2 -2.8-7.8-7-14.6-12.3-21 -4.4-5.3-4.6-12.4-5.5-19.1 -0.1-4.1-0.1-8.2-2-12 -0.1-0.5-0.2-1-0.2-1.6 -2.1-1.6-2.6-3.8-2.9-6.5 -0.4-4.4-0.9-8.9-1.5-13.3 -0.3-2.5 0.4-5.1-0.4-7.6 4-1.6 5.9-0.5 5.5 4.2 -0.4 4.7-0.3 9.1 1.3 13.4 0.3 0.8 0.5 1.5 1.7 1.9 1.3-2.4 0.1-5.1 0.6-7.5 1.7-1.2 2.8-4.8 5.5-1.1 0.3 6-2.1 12.1 0.3 18.1 -2 1.5-0.2 3-0.1 4.5C43.2 126.2 49.5 136.5 56.8 146.2z"/><path class="st68" d="M41.5 91.2c-2.3-1.8-3.5 1.3-5.5 1.1 0.5-2.1 0.8-4.2 1.5-6.3 0.5-1.5 0.5-3.5 2.6-3.8 1.7-0.2 2.6 1.3 3.5 2.5 1.3 1.6 0.1 2.8-0.9 3.9C42.1 89.4 41.6 90.2 41.5 91.2z"/><path class="st69" d="M27.8 88.2c1.8 4.3 1.8 9 2.2 13.5 0.2 2.3 1 4 1.7 5.9 -2.5-0.1-3.4-2-3.7-4 -0.5-3.4-0.7-6.9-1.1-10.3C27.9 91.7 26.6 89.8 27.8 88.2z"/><path class="st70" d="M45.2 73.5c-0.5 1.7-1 3.3-1.5 5 -0.2 0.9-0.2 2.1-1.5 2.1 -0.6 0-1.4-0.4-1.6-0.8 -0.5-1 0.2-1.8 0.8-2.6 1.1-1.4 2.2-2.8 3.2-4.2C44.9 73.2 45 73.3 45.2 73.5z"/><path class="st71" d="M31.9 109.2c0.5 0 0.9-0.1 1.4-0.1 0.1 4 2.3 8 0.6 12.1C32.6 117.3 32.3 113.2 31.9 109.2z"/><path class="st72" d="M27.8 88.2c-0.5 1.7 0.5 3.6-0.9 5.1 0-4.3 0-8.7 0-13C28.8 82.8 27.4 85.6 27.8 88.2z"/><path class="st73" d="M32.7 71.2c0 0.3 0.1 0.6 0.1 1 -2 0.8-0.9 5.3-4.7 4C29.5 74.4 30.2 72 32.7 71.2z"/><path class="st38" d="M118 8.5c-6.8-0.3-13.2-5.8-20.2-2.5C94 7.7 90.7 6.8 87.3 5.9c-0.7-0.2-3.5-1.2-0.5-2.6 2 1.4 3.9 1.7 6.4 0.9 6.6-2.3 13.4-2.6 19.6 1.4 2.9 1.8 6.3-0.2 9 1.8 -0.4 0.4-0.8 0.8-1.2 1.2C119.7 9.1 118.8 9.1 118 8.5z"/><path class="st74" d="M158.7 59.8c-5.1 1.7-1.4 6.5-3.4 9.3 -0.8 1.1-1.8 1.5-3 0.9 -1.2-0.6-2.6-1.5-1.8-3 1.8-3.7 2-6.5-2.2-9 -1.9-1.1-2-4-0.3-5.8 1.7-1.8 3.3 0.3 4.7 1.1C155.4 54.8 157.1 57.3 158.7 59.8z"/><path class="st75" d="M140.8 103.5c-5.2 2.4-8.8-0.7-12.1-3.8 -2.6-2.5-4.6-5.5-6.9-8.3 2.9-0.4 3.9 2.3 5.4 3.8 8 7.8 9.9 8 18.9 1.3 0.6-0.4 1.1-1.3 2.4-0.7C147.3 99.8 143.8 101.4 140.8 103.5z"/><path class="st76" d="M101.8 57.3c-6.9-3-14.4-1.3-21.4-2.9 -1.1-0.2-2.4 0-3.5-2.7 9.1 2.3 18.1-0.8 26 4.5C103.2 57.2 102.7 57.5 101.8 57.3z"/><path class="st77" d="M101.8 57.3c0.4-0.4 0.7-0.8 1.1-1.2 2.2 1.9 3.5 4.4 4.1 8C103.8 62.3 103.6 59.1 101.8 57.3z"/><path class="st78" d="M118 8.5c0.9 0 1.7 0 2.6 0 0.3 1.7-0.1 3.1-2.1 2.8C116.1 10.9 117.4 9.5 118 8.5z"/><path class="st13" d="M121.8 232.1c0.2-1.3-0.1-3.2 1.6-3 1.8 0.2 2.4 2 2.3 3.7 0 1.3-0.2 3.1-1.8 2.9C122 235.6 122 233.5 121.8 232.1z"/><path class="st79" d="M113.1 40.9c-0.3-1.6-1-3 0.3-4.2 0.2-0.2 1.5 0.3 1.6 0.6C115.2 38.6 115.2 40.1 113.1 40.9z"/><path class="st80" d="M149.7 54.1c2.2 0.9 3.5 1.7 3.9 3.4 0 0.1-0.7 0.6-1 0.6C150.6 57.8 150.2 56.4 149.7 54.1z"/></svg>