<?xml version="1.0" standalone="no"?>
<!DOCTYPE svg PUBLIC "-//W3C//DTD SVG 20010904//EN"
 "http://www.w3.org/TR/2001/REC-SVG-20010904/DTD/svg10.dtd">
<svg version="1.0" xmlns="http://www.w3.org/2000/svg"
 width="16.000000pt" height="16.000000pt" viewBox="0 0 16.000000 16.000000"
 preserveAspectRatio="xMidYMid meet">
<metadata>
Created by potrace 1.11, written by Peter Selinger 2001-2013
</metadata>
<g transform="translate(0.000000,16.000000) scale(0.002286,-0.002286)"
fill="#000000" stroke="none">
<path d="M3831 6981 c-6 -10 -10 -78 -9 -150 0 -72 -2 -134 -6 -138 -4 -4 -72
-8 -152 -8 -107 -1 -148 -5 -153 -14 -5 -7 -8 -467 -8 -1022 0 -732 -3 -1012
-11 -1022 -9 -10 -44 -13 -147 -12 -74 0 -141 -2 -148 -7 -8 -5 -12 -49 -13
-153 -1 -80 -4 -149 -7 -152 -3 -3 -102 -5 -219 -4 -167 1 -218 -2 -232 -12
-17 -13 -19 -29 -20 -158 l-1 -144 -224 -3 c-142 -1 -229 -6 -237 -13 -10 -8
-14 -52 -16 -158 l-3 -146 -146 -3 c-105 -2 -150 -6 -158 -15 -6 -8 -12 -74
-13 -158 l-3 -144 -300 -2 c-165 -1 -307 2 -315 7 -12 7 -15 38 -16 147 -1 76
-2 144 -3 151 -1 9 -38 12 -150 12 -106 0 -152 4 -157 12 -4 7 -7 75 -7 152 1
96 -3 143 -11 148 -6 4 -72 8 -147 8 -91 0 -139 4 -147 12 -9 9 -12 91 -12
310 0 273 -1 298 -18 306 -27 15 -268 12 -288 -2 -15 -12 -16 -85 -16 -943 0
-512 3 -936 6 -942 5 -7 58 -11 150 -11 103 0 146 -4 153 -12 6 -7 9 -71 8
-143 -1 -71 3 -138 7 -148 8 -15 25 -17 153 -17 102 0 146 -4 151 -12 4 -7 7
-74 6 -149 -1 -96 3 -140 11 -147 7 -5 73 -9 148 -9 75 0 141 -3 147 -7 8 -5
12 -53 12 -150 0 -103 4 -146 13 -153 6 -5 71 -9 142 -8 72 1 138 -3 148 -7
15 -8 17 -25 17 -153 0 -96 4 -146 11 -151 7 -4 73 -7 148 -6 75 0 141 -4 147
-9 8 -7 12 -183 12 -625 0 -417 4 -619 11 -628 16 -19 608 -17 620 2 11 18 13
273 2 291 -7 10 -40 13 -147 13 -77 -1 -145 2 -152 7 -9 6 -12 45 -10 157 l3
149 144 3 c80 1 150 7 156 12 8 7 12 55 12 149 0 76 3 143 7 149 4 7 58 11
147 11 78 0 146 5 153 10 8 7 11 52 10 143 0 73 3 140 7 149 7 14 29 16 153
15 79 0 147 -4 151 -8 4 -3 7 -72 7 -152 0 -84 4 -148 10 -152 5 -3 73 -6 151
-7 90 0 145 -4 149 -11 4 -6 8 -219 8 -472 0 -412 2 -463 16 -468 26 -10 584
-7 603 3 16 9 18 26 18 151 0 93 -3 143 -11 148 -6 4 -73 7 -149 8 -86 1 -142
5 -149 12 -13 13 -16 1230 -4 1251 5 7 52 11 144 11 75 0 144 4 152 10 11 7
14 37 15 147 0 76 4 144 8 151 6 9 48 12 152 12 104 0 146 3 152 12 4 7 7 111
8 231 0 184 2 220 15 227 8 4 75 7 148 7 83 0 137 4 143 10 8 8 11 172 10 543
-1 390 1 536 10 546 15 19 279 20 297 2 8 -8 12 -57 12 -154 0 -120 2 -143 16
-148 9 -3 73 -6 144 -6 104 0 132 3 144 16 14 13 16 55 16 302 0 163 -4 293
-10 302 -8 13 -54 15 -310 15 -253 1 -303 3 -310 15 -6 8 -10 150 -10 318 l0
302 23 1 c12 1 293 2 624 3 462 1 605 4 614 13 15 15 20 258 7 286 -8 16 -40
17 -466 17 -251 0 -463 4 -470 8 -9 7 -12 45 -10 158 l3 149 779 3 c555 1 783
5 793 13 11 9 13 137 13 710 0 467 -3 700 -10 704 -6 4 -73 6 -150 6 -123 -1
-140 1 -149 16 -5 10 -9 78 -8 151 0 105 -3 136 -14 143 -8 5 -549 9 -1261 9
-1214 0 -1248 -1 -1257 -19z"/>
<path d="M17 1252 c-21 -23 -23 -114 -3 -131 10 -8 176 -11 615 -11 582 1 603
2 622 21 22 22 27 107 7 127 -9 9 -160 12 -618 12 -575 0 -608 -1 -623 -18z"/>
<path d="M4478 1259 c-14 -8 -18 -24 -18 -74 0 -36 3 -66 8 -67 4 0 566 -2
1250 -3 1041 -1 1246 1 1262 12 16 11 20 26 20 67 0 28 -5 57 -12 64 -16 16
-2483 17 -2510 1z"/>
<path d="M1013 629 c-24 -3 -45 -8 -48 -11 -3 -2 -7 -27 -10 -55 -8 -90 -21
-86 320 -85 234 1 300 4 306 14 13 20 11 126 -2 134 -14 8 -507 11 -566 3z"/>
<path d="M6558 312 c-30 -4 -32 -9 -29 -92 1 -24 7 -48 14 -52 7 -4 40 -8 75
-8 l62 0 0 70 c0 48 -4 72 -13 76 -17 6 -76 10 -109 6z"/>
<path d="M27 145 c-17 -8 -23 -21 -25 -54 -2 -25 -1 -55 3 -68 l5 -23 308 2
307 3 3 73 c3 63 1 72 -15 74 -85 7 -569 2 -586 -7z"/>
</g>
</svg>
